<svg width="67" height="15" viewBox="0 0 67 15" fill="none" xmlns="http://www.w3.org/2000/svg"><path d="M27.125 3.022V1.424h-6.398V12.01h1.827V7.62h4.14V6.022h-4.14v-3h4.57zm17.523 4.385v4.603h1.725V6.983c0-1.167-.62-3.316-3.25-3.316-2.056 0-2.847 1.21-2.847 1.21l-.13-1.058h-1.53v8.191h1.748V7.838c0-1.825.992-2.685 2.327-2.685 1.587 0 1.957 1.23 1.957 2.254zm18.829 3.898L67 3.804h-1.798L62.64 9.543l-2.73-5.74h-1.895l3.708 7.591c-.08.184-.575 1.284-.938 1.638-.318.3-.757.42-1.281.42l.255 1.42c.383.01.766-.053 1.123-.188s.681-.338.953-.597c.81-.782 1.477-2.428 1.477-2.428l.143-.303h.048l-.025-.051zM32.824 3.683h-.464c-1.137 0-2.227.43-3.03 1.198a3.998 3.998 0 00-1.256 2.892v.311c0 1.085.452 2.125 1.256 2.891a4.393 4.393 0 003.03 1.198h.464c1.137 0 2.227-.43 3.03-1.198a3.998 3.998 0 001.256-2.89v-.312a3.998 3.998 0 00-1.255-2.892 4.392 4.392 0 00-3.03-1.198zm2.549 4.348c0 .69-.288 1.354-.8 1.842a2.799 2.799 0 01-1.931.764h-.09a2.798 2.798 0 01-1.93-.764 2.547 2.547 0 01-.8-1.842v-.206c0-.691.287-1.354.8-1.843a2.798 2.798 0 011.93-.763h.081c.724 0 1.419.274 1.931.763s.8 1.152.8 1.843l.009.206zM55.087.898v3.678a4.399 4.399 0 00-2.67-.893h-.258a4.394 4.394 0 00-3.03 1.198 4 4 0 00-1.256 2.892v.311c0 1.085.452 2.125 1.256 2.892a4.392 4.392 0 003.03 1.197h.257a4.384 4.384 0 002.91-1.086l.141.906h1.38V.898h-1.76zm.086 7.133a2.55 2.55 0 01-.8 1.843 2.798 2.798 0 01-1.93.763h-.09a2.799 2.799 0 01-1.93-.763 2.547 2.547 0 01-.8-1.843v-.206c0-.691.287-1.354.8-1.843a2.799 2.799 0 011.93-.763h.09a2.8 2.8 0 011.93.763c.513.489.8 1.152.8 1.843v.206z" fill="#fff"/><path d="M9.475 11.702V9.96a.53.53 0 00-.077-.274.562.562 0 00-.21-.2l-1.581-.871a.596.596 0 00-.575 0l-1.581.87a.562.562 0 00-.21.201.53.53 0 00-.078.274v1.742a.539.539 0 00.287.475l1.582.872a.596.596 0 00.575 0l1.58-.871a.562.562 0 00.211-.201.53.53 0 00.077-.275zm5.164 0V9.96a.529.529 0 00-.077-.274.561.561 0 00-.21-.2l-1.581-.871a.596.596 0 00-.575 0l-1.581.87a.562.562 0 00-.21.201.529.529 0 00-.078.274v1.742a.539.539 0 00.287.475l1.582.872a.596.596 0 00.575 0l1.58-.871a.562.562 0 00.211-.201.53.53 0 00.077-.275zM6.9 7.432V5.69a.529.529 0 00-.077-.276.562.562 0 00-.211-.201L5.03 4.344a.596.596 0 00-.575 0l-1.581.869a.562.562 0 00-.21.2.53.53 0 00-.078.274V7.43a.53.53 0 00.077.275c.05.084.123.153.21.201l1.582.874a.596.596 0 00.575 0l1.58-.871a.562.562 0 00.211-.201.529.529 0 00.077-.275zm5.157 0V5.69a.529.529 0 00-.077-.274.562.562 0 00-.21-.2l-1.581-.872a.596.596 0 00-.575 0l-1.58.869a.562.562 0 00-.211.2.53.53 0 00-.077.274V7.43a.53.53 0 00.076.275c.05.084.124.153.211.201l1.581.871a.597.597 0 00.575 0l1.581-.87a.564.564 0 00.21-.2.53.53 0 00.077-.274zm-7.745 4.27V9.96a.53.53 0 00-.077-.274.562.562 0 00-.21-.2l-1.582-.871a.596.596 0 00-.575 0l-1.58.87a.562.562 0 00-.21.201A.53.53 0 000 9.96v1.742a.53.53 0 00.077.275c.05.083.123.153.21.2l1.581.872a.596.596 0 00.575 0l1.581-.871a.562.562 0 00.211-.201.53.53 0 00.077-.275z" fill="#fff" fill-opacity=".5"/><path d="M9.475 3.162V1.42a.53.53 0 00-.077-.274.562.562 0 00-.21-.2L7.607.073a.596.596 0 00-.575 0L5.45.945a.562.562 0 00-.21.201.53.53 0 00-.078.274v1.742a.53.53 0 00.077.275c.05.083.123.153.21.2l1.582.872a.596.596 0 00.575 0l1.58-.871a.562.562 0 00.211-.201.53.53 0 00.077-.275z" fill="#fff"/></svg>