<svg width="97" height="17" viewBox="0 0 97 17" fill="none" xmlns="http://www.w3.org/2000/svg"><path d="M7.676 13H.278V.994h2.106v10.152h5.292V13zm5.507.216c-1.344 0-2.424-.438-3.24-1.314-.816-.888-1.224-1.974-1.224-3.258s.408-2.364 1.224-3.24c.816-.876 1.896-1.314 3.24-1.314 1.356 0 2.442.438 3.258 1.314.816.876 1.224 1.956 1.224 3.24 0 1.296-.408 2.382-1.224 3.258-.816.876-1.902 1.314-3.258 1.314zm0-1.674c.78 0 1.392-.276 1.836-.828.456-.564.684-1.254.684-2.07 0-.804-.228-1.482-.684-2.034-.444-.564-1.056-.846-1.836-.846-.768 0-1.38.282-1.836.846-.444.552-.666 1.23-.666 2.034 0 .816.222 1.506.666 2.07.456.552 1.068.828 1.836.828zm9.922 4.986c-1.476 0-2.688-.432-3.636-1.296l.883-1.368c.648.744 1.566 1.116 2.753 1.116.72 0 1.326-.192 1.819-.576.503-.372.756-.966.756-1.782v-1.044c-.744.96-1.674 1.44-2.79 1.44-1.14 0-2.07-.396-2.79-1.188-.709-.792-1.063-1.884-1.063-3.276 0-1.38.355-2.466 1.063-3.258.72-.804 1.65-1.206 2.79-1.206 1.14 0 2.07.474 2.79 1.422V4.306h1.89v8.244c0 .744-.133 1.386-.396 1.926-.252.552-.6.966-1.044 1.242a4.52 4.52 0 01-1.422.612 6.167 6.167 0 01-1.602.198zm.343-5.184c.431 0 .857-.114 1.277-.342.42-.228.738-.504.954-.828v-3.24c-.215-.324-.534-.6-.953-.828a2.652 2.652 0 00-1.278-.342c-.745 0-1.338.258-1.782.774C21.22 7.042 21 7.714 21 8.554c0 .84.221 1.518.666 2.034.444.504 1.037.756 1.782.756zm10.495 1.872c-1.344 0-2.424-.438-3.24-1.314-.816-.888-1.224-1.974-1.224-3.258s.408-2.364 1.224-3.24c.816-.876 1.896-1.314 3.24-1.314 1.356 0 2.442.438 3.258 1.314.816.876 1.224 1.956 1.224 3.24 0 1.296-.408 2.382-1.224 3.258-.816.876-1.902 1.314-3.258 1.314zm0-1.674c.78 0 1.392-.276 1.836-.828.456-.564.684-1.254.684-2.07 0-.804-.228-1.482-.684-2.034-.444-.564-1.056-.846-1.836-.846-.768 0-1.38.282-1.836.846-.444.552-.666 1.23-.666 2.034 0 .816.222 1.506.666 2.07.456.552 1.068.828 1.836.828zm8.16 1.296c-.252.24-.546.36-.882.36-.336 0-.63-.12-.882-.36a1.229 1.229 0 01-.378-.9c0-.348.126-.642.378-.882.252-.252.546-.378.882-.378.336 0 .63.126.882.378.252.24.378.534.378.882s-.126.648-.378.9zm10.48.162h-1.89v-1.188c-.72.936-1.65 1.404-2.79 1.404-1.14 0-2.07-.408-2.79-1.224-.72-.816-1.08-1.926-1.08-3.33 0-1.392.36-2.502 1.08-3.33.72-.828 1.65-1.242 2.79-1.242 1.14 0 2.07.474 2.79 1.422V.994h1.89V13zm-4.14-1.458c.445 0 .877-.108 1.297-.324.42-.216.738-.492.954-.828V6.934c-.216-.336-.534-.612-.954-.828a2.685 2.685 0 00-1.296-.342c-.744 0-1.338.27-1.782.81-.444.54-.666 1.236-.666 2.088 0 .852.222 1.548.666 2.088.444.528 1.038.792 1.782.792zm10.604 1.674c-1.32 0-2.412-.42-3.276-1.26-.852-.852-1.278-1.956-1.278-3.312 0-1.272.414-2.346 1.242-3.222.84-.888 1.896-1.332 3.168-1.332 1.284 0 2.316.444 3.096 1.332.792.888 1.188 2.022 1.188 3.402v.45h-6.714a2.63 2.63 0 00.846 1.71c.492.456 1.134.684 1.926.684a3.74 3.74 0 001.332-.252 3.084 3.084 0 001.134-.702l.864 1.242c-.876.84-2.052 1.26-3.528 1.26zm2.304-5.274a2.488 2.488 0 00-.666-1.602c-.408-.468-1.002-.702-1.782-.702-.744 0-1.326.234-1.746.702-.42.456-.654.99-.702 1.602h4.896zm6.671 5.274c-1.56 0-2.802-.45-3.726-1.35l.864-1.368c.324.336.762.624 1.314.864s1.098.36 1.638.36c.552 0 .972-.108 1.26-.324.3-.216.45-.498.45-.846 0-.312-.18-.552-.54-.72a4.983 4.983 0 00-1.314-.414 24.208 24.208 0 01-1.548-.378 2.93 2.93 0 01-1.314-.81c-.36-.384-.54-.882-.54-1.494 0-.744.306-1.368.918-1.872.612-.516 1.446-.774 2.502-.774 1.332 0 2.46.408 3.384 1.224l-.792 1.332c-.276-.312-.642-.564-1.098-.756a3.764 3.764 0 00-1.476-.288c-.492 0-.888.102-1.188.306-.288.192-.432.444-.432.756 0 .24.126.438.378.594.264.144.588.252.972.324.396.072.822.174 1.278.306.456.12.876.264 1.26.432.396.168.72.444.972.828.264.372.396.828.396 1.368 0 .792-.318 1.44-.954 1.944-.636.504-1.524.756-2.664.756zm6.456-9.972c-.312 0-.588-.114-.828-.342a1.128 1.128 0 01-.342-.828c0-.324.114-.6.342-.828.24-.228.516-.342.828-.342.324 0 .6.114.828.342.228.228.342.504.342.828 0 .324-.114.6-.342.828a1.128 1.128 0 01-.828.342zM75.432 13h-1.89V4.306h1.89V13zm5.98 3.528c-1.476 0-2.688-.432-3.636-1.296l.882-1.368c.648.744 1.566 1.116 2.754 1.116.72 0 1.326-.192 1.818-.576.504-.372.756-.966.756-1.782v-1.044c-.744.96-1.674 1.44-2.79 1.44-1.14 0-2.07-.396-2.79-1.188-.708-.792-1.062-1.884-1.062-3.276 0-1.38.354-2.466 1.062-3.258.72-.804 1.65-1.206 2.79-1.206 1.14 0 2.07.474 2.79 1.422V4.306h1.89v8.244c0 .744-.132 1.386-.396 1.926-.252.552-.6.966-1.044 1.242a4.52 4.52 0 01-1.422.612 6.167 6.167 0 01-1.602.198zm.342-5.184c.432 0 .858-.114 1.278-.342.42-.228.738-.504.954-.828v-3.24c-.216-.324-.534-.6-.954-.828a2.652 2.652 0 00-1.278-.342c-.744 0-1.338.258-1.782.774-.444.504-.666 1.176-.666 2.016 0 .84.222 1.518.666 2.034.444.504 1.038.756 1.782.756zM96.084 13h-1.89V7.564c0-1.2-.582-1.8-1.746-1.8-.456 0-.882.114-1.278.342a3.073 3.073 0 00-.954.828V13h-1.89V4.306h1.89v1.188c.324-.384.756-.714 1.296-.99a3.82 3.82 0 011.764-.414c.924 0 1.62.24 2.088.72.48.48.72 1.17.72 2.07V13z" fill="#352F55"/></svg>