<svg width="48" height="48" viewBox="0 0 48 48" fill="none" xmlns="http://www.w3.org/2000/svg"><path d="M48 24c0 7.924-6.4 14.4-14.4 14.4-7.924 0-14.4-6.476-14.4-14.4S25.6 9.6 33.524 9.6C41.6 9.6 48 16.076 48 24z" fill="#fff" fill-opacity=".3"/><path d="M14.267 9.714C6.408 9.79 0 16.161 0 24.048S6.408 38.38 14.42 38.38c3.737 0 7.094-1.44 9.688-3.716.534-.455.992-.986 1.45-1.517h-2.976a17.5 17.5 0 01-1.068-1.44h5.112c.305-.456.61-.987.839-1.517h-6.79a9.004 9.004 0 01-.61-1.517h7.934c.458-1.441.763-2.958.763-4.55 0-1.062-.153-2.048-.305-3.034h-8.85c.076-.53.229-.986.381-1.517h7.935a9.014 9.014 0 00-.61-1.517h-6.714c.229-.53.534-.985.839-1.516h5.111a7.213 7.213 0 00-1.144-1.517h-2.823c.458-.53.916-.986 1.45-1.44-2.518-2.352-5.95-3.717-9.69-3.717 0-.152 0-.152-.075-.152z" fill="#fff"/><path d="M14.4 38.4c3.733 0 7.086-1.448 9.676-3.733.534-.457.99-.99 1.448-1.524h-2.972c-.38-.457-.761-.99-1.066-1.448h5.104c.305-.457.61-.99.839-1.523h-6.781a9.091 9.091 0 01-.61-1.524h7.924c.457-1.448.762-2.972.762-4.572 0-1.066-.152-2.057-.305-3.047h-8.838c.076-.534.229-.99.38-1.524h7.925a9.074 9.074 0 00-.61-1.524h-6.704c.228-.533.533-.99.838-1.524h5.104a7.244 7.244 0 00-1.142-1.524h-2.82c.458-.533.915-.99 1.448-1.447-2.514-2.362-5.943-3.734-9.676-3.734h-.076" fill="#fff"/><path d="M19.505 27.657l.228-1.295c-.076 0-.228.076-.38.076-.534 0-.61-.305-.534-.457l.457-2.667h.838l.229-1.448h-.762l.152-.914H18.21s-.914 5.029-.914 5.638c0 .915.533 1.296 1.22 1.296.456 0 .837-.153.99-.23zm.533-2.438c0 2.133 1.448 2.667 2.667 2.667 1.143 0 1.6-.229 1.6-.229l.305-1.448s-.839.381-1.6.381c-1.677 0-1.372-1.219-1.372-1.219h3.124s.229-.99.229-1.371c0-.99-.534-2.21-2.21-2.21-1.6-.152-2.743 1.524-2.743 3.429zm2.667-2.21c.838 0 .686.99.686 1.067h-1.677c0-.076.153-1.067.99-1.067zm9.675 4.648l.306-1.676s-.762.38-1.296.38c-1.066 0-1.523-.837-1.523-1.752 0-1.828.914-2.819 1.98-2.819.762 0 1.372.458 1.372.458l.229-1.6s-.915-.381-1.753-.381c-1.752 0-3.505 1.523-3.505 4.419 0 1.904.915 3.2 2.743 3.2.61 0 1.448-.229 1.448-.229zm-21.256-6.019c-1.067 0-1.829.305-1.829.305l-.228 1.295s.685-.305 1.676-.305c.533 0 .99.077.99.534 0 .305-.076.38-.076.38h-.686c-1.295 0-2.742.534-2.742 2.286 0 1.372.914 1.677 1.447 1.677 1.067 0 1.524-.686 1.6-.686l-.076.61h1.371l.61-4.191c0-1.829-1.524-1.905-2.057-1.905zm.304 3.429c0 .228-.152 1.447-1.066 1.447-.457 0-.61-.38-.61-.61 0-.38.229-.913 1.372-.913.228.076.304.076.304.076zm3.201 2.743c.38 0 2.285.075 2.285-1.982 0-1.905-1.828-1.524-1.828-2.285 0-.381.304-.534.838-.534.228 0 1.066.076 1.066.076l.229-1.371s-.533-.152-1.448-.152c-1.143 0-2.285.457-2.285 1.98 0 1.753 1.904 1.6 1.904 2.286 0 .457-.533.534-.914.534-.686 0-1.371-.23-1.371-.23l-.229 1.372c.076.153.457.305 1.753.305zm30.4-7.391l-.305 2.057s-.61-.762-1.448-.762c-1.371 0-2.59 1.676-2.59 3.657 0 1.22.61 2.515 1.904 2.515.915 0 1.448-.61 1.448-.61l-.076.533h1.524l1.143-7.314-1.6-.076zm-.686 4.038c0 .838-.381 1.905-1.22 1.905-.533 0-.837-.457-.837-1.22 0-1.218.533-1.98 1.219-1.98.533 0 .838.38.838 1.295zM2.819 27.733l.914-5.486.153 5.486h1.066l1.981-5.486-.838 5.486h1.6l1.22-7.314H6.4l-1.524 4.495L4.8 20.42H2.59l-1.219 7.314H2.82zm23.619 0c.457-2.514.533-4.571 1.6-4.19.152-.99.381-1.371.533-1.752h-.304c-.686 0-1.22.914-1.22.914l.153-.838h-1.448l-.99 5.943h1.676v-.077zm9.448-6.095c-1.067 0-1.829.305-1.829.305l-.229 1.295s.686-.305 1.677-.305c.533 0 .99.077.99.534 0 .305-.076.38-.076.38h-.686c-1.295 0-2.743.534-2.743 2.286 0 1.372.915 1.677 1.448 1.677 1.067 0 1.524-.686 1.6-.686l-.076.61h1.371l.61-4.191c.076-1.829-1.524-1.905-2.057-1.905zm.38 3.429c0 .228-.152 1.447-1.066 1.447-.457 0-.61-.38-.61-.61 0-.38.229-.913 1.372-.913.228.076.228.076.305.076zm2.972 2.666c.457-2.514.533-4.571 1.6-4.19.152-.99.381-1.371.533-1.752h-.304c-.686 0-1.22.914-1.22.914l.153-.838h-1.448l-.99 5.943h1.676v-.077z" fill="#4045BA"/></svg>