<svg width="48" height="48" viewBox="0 0 48 48" fill="none" xmlns="http://www.w3.org/2000/svg"><path d="M19.22 16.857l-2.44 14.316h3.901l2.442-14.316h-3.904zm-5.711.016l-3.822 9.763-.407-1.474c-.754-1.776-2.893-4.327-5.405-5.935L7.37 31.166l4.129-.008 6.144-14.288-4.133.003z" fill="#fff"/><path d="M7.799 17.898c-.227-.872-.884-1.132-1.7-1.163H.05L0 17.02c4.707 1.142 7.822 3.893 9.115 7.202l-1.316-6.324zm23.231 1.704a7.202 7.202 0 012.92.548l.353.165.528-3.103c-.773-.29-1.984-.6-3.496-.6-3.855 0-6.572 1.941-6.593 4.724-.026 2.056 1.935 3.204 3.416 3.89 1.52.701 2.03 1.148 2.023 1.775-.012.959-1.212 1.398-2.333 1.398-1.562 0-2.392-.216-3.673-.75l-.503-.228-.549 3.204c.913.4 2.598.744 4.347.762 4.101 0 6.766-1.918 6.794-4.892.018-1.626-1.023-2.867-3.278-3.886-1.365-.664-2.2-1.106-2.191-1.776 0-.595.708-1.231 2.235-1.231zm13.813-2.729H41.83c-.937 0-1.633.255-2.044 1.189L33.992 31.18h4.097s.668-1.764.82-2.15l4.996.006c.116.5.475 2.144.475 2.144H48l-3.157-14.308zM40.031 26.1c.322-.821 1.555-4 1.555-4-.021.039.318-.828.52-1.367l.262 1.234.905 4.133H40.03z" fill="#fff"/></svg>