<svg width="67" height="15" viewBox="0 0 67 15" fill="none" xmlns="http://www.w3.org/2000/svg">
<path d="M27.1247 3.02224V1.42432H22.5541H21.4474H20.7273V12.0103H22.5541V7.61984H26.6935V6.02192H22.5541V3.02224H27.1247Z" fill="white"/>
<path d="M44.6485 7.40688V12.01H46.3732V6.98304C46.3732 5.81581 45.7523 3.6665 43.1221 3.6665C41.0668 3.6665 40.2763 4.87626 40.2763 4.87626L40.1462 3.81875H38.6162V12.01H40.364V7.83756C40.364 6.01332 41.3557 5.15332 42.6909 5.15332C44.2776 5.15332 44.6485 6.38226 44.6485 7.40688Z" fill="white"/>
<path d="M63.4773 11.305L67 3.80371H65.2021L62.6395 9.54251L59.9084 3.80371H58.0141L61.7224 11.3942C61.6418 11.5779 61.1474 12.678 60.7837 13.0319C60.4661 13.3322 60.0274 13.4519 59.5028 13.4519L59.7575 14.8712C60.1415 14.8827 60.5239 14.8191 60.8811 14.6842C61.2383 14.5493 61.5625 14.3459 61.8342 14.0866C62.6438 13.3048 63.3107 11.6589 63.3107 11.6589L63.4539 11.3558H63.5019L63.4773 11.305Z" fill="white"/>
<path d="M32.8242 3.68262H32.3599C31.2232 3.68262 30.1331 4.11354 29.3293 4.88058C28.5255 5.64763 28.074 6.68796 28.074 7.77276V8.0841C28.0743 9.1686 28.5261 10.2086 29.3298 10.9754C30.1336 11.7421 31.2235 12.1729 32.3599 12.1729H32.8242C33.9606 12.1729 35.0506 11.7421 35.8543 10.9754C36.658 10.2086 37.1098 9.1686 37.1101 8.0841V7.77276C37.1101 6.68796 36.6586 5.64763 35.8548 4.88058C35.0511 4.11354 33.9609 3.68262 32.8242 3.68262ZM35.3725 8.03058C35.3725 8.72178 35.0848 9.3846 34.5727 9.87336C34.0605 10.3621 33.3659 10.6367 32.6417 10.6367H32.5525C31.8283 10.6367 31.1337 10.3621 30.6216 9.87336C30.1094 9.3846 29.8217 8.72178 29.8217 8.03058V7.82484C29.8217 7.1337 30.1094 6.47082 30.6216 5.9821C31.1337 5.49337 31.8283 5.21881 32.5525 5.21881H32.633C33.3573 5.21881 34.0519 5.49337 34.564 5.9821C35.0761 6.47082 35.3639 7.1337 35.3639 7.82484L35.3725 8.03058Z" fill="white"/>
<path d="M55.0869 0.898438V4.57571C54.329 3.99699 53.3871 3.68204 52.4164 3.68279H52.1592C51.0226 3.68316 49.9327 4.1142 49.129 4.88117C48.3253 5.64813 47.8736 6.68828 47.8732 7.7729V8.0843C47.8736 9.1688 48.3253 10.2088 49.1291 10.9755C49.9328 11.7423 51.0227 12.173 52.1592 12.173H52.4164C53.4951 12.1746 54.5344 11.7865 55.3255 11.0867L55.4672 11.9934H56.8462V0.898438H55.0869ZM55.1732 8.03078C55.1732 8.72192 54.8855 9.3848 54.3733 9.87356C53.8612 10.3623 53.1666 10.6368 52.4423 10.6368H52.3533C51.629 10.6368 50.9344 10.3623 50.4222 9.87356C49.9101 9.3848 49.6224 8.72192 49.6224 8.03078V7.82504C49.6224 7.1339 49.9101 6.47102 50.4222 5.98229C50.9344 5.49356 51.629 5.21899 52.3533 5.21899H52.4423C53.1666 5.21899 53.8612 5.49356 54.3733 5.98229C54.8855 6.47102 55.1732 7.1339 55.1732 7.82504V8.03078Z" fill="white"/>
<path d="M9.47509 11.702V9.96001C9.47497 9.86383 9.44835 9.76933 9.39795 9.68605C9.34748 9.60271 9.27495 9.5336 9.1876 9.48548L7.60665 8.61452C7.51924 8.56634 7.42009 8.54102 7.31916 8.54102C7.21823 8.54102 7.11909 8.56634 7.03168 8.61452L5.4507 9.48548C5.36338 9.5336 5.29086 9.60271 5.24041 9.68605C5.18996 9.76933 5.16334 9.86383 5.16324 9.96001V11.702C5.16309 11.7984 5.18958 11.8932 5.24006 11.9767C5.29052 12.0603 5.36318 12.1297 5.4507 12.1779L7.03168 13.0489C7.11909 13.0971 7.21823 13.1224 7.31916 13.1224C7.42009 13.1224 7.51924 13.0971 7.60665 13.0489L9.1876 12.1779C9.27513 12.1297 9.34779 12.0603 9.39825 11.9767C9.44872 11.8932 9.47521 11.7984 9.47509 11.702Z" fill="white" fill-opacity="0.5"/>
<path d="M14.639 11.702V9.96001C14.6389 9.86383 14.6123 9.76933 14.5618 9.68605C14.5114 9.60271 14.4389 9.5336 14.3515 9.48548L12.7706 8.61452C12.6832 8.56634 12.584 8.54102 12.4831 8.54102C12.3822 8.54102 12.283 8.56634 12.1956 8.61452L10.6146 9.48548C10.5273 9.5336 10.4548 9.60271 10.4044 9.68605C10.3539 9.76933 10.3273 9.86383 10.3272 9.96001V11.702C10.327 11.7984 10.3535 11.8932 10.404 11.9767C10.4545 12.0603 10.5271 12.1297 10.6146 12.1779L12.1956 13.0489C12.283 13.0971 12.3822 13.1224 12.4831 13.1224C12.584 13.1224 12.6832 13.0971 12.7706 13.0489L14.3515 12.1779C14.4391 12.1297 14.5117 12.0603 14.5622 11.9767C14.6126 11.8932 14.6391 11.7984 14.639 11.702Z" fill="white" fill-opacity="0.5"/>
<path d="M6.89916 7.432V5.69005C6.89959 5.59337 6.87322 5.49831 6.82269 5.41449C6.77223 5.33067 6.69945 5.26107 6.61173 5.21273L5.03071 4.3445C4.9433 4.29635 4.84417 4.271 4.74324 4.271C4.64233 4.271 4.54319 4.29635 4.45579 4.3445L2.87478 5.21273C2.78747 5.26083 2.71495 5.33001 2.6645 5.4133C2.61404 5.4966 2.58743 5.59109 2.58733 5.6873V7.42924C2.58718 7.52566 2.61367 7.62046 2.66414 7.70404C2.7146 7.78756 2.78726 7.85698 2.87478 7.90522L4.45579 8.77888C4.54319 8.82706 4.64233 8.85238 4.74324 8.85238C4.84417 8.85238 4.9433 8.82706 5.03071 8.77888L6.61173 7.90792C6.69926 7.85974 6.77192 7.79032 6.82238 7.70674C6.87285 7.62322 6.89934 7.52842 6.89916 7.432Z" fill="white" fill-opacity="0.5"/>
<path d="M12.0575 7.432V5.69005C12.0574 5.59383 12.0308 5.49934 11.9803 5.41605C11.9299 5.33275 11.8573 5.26358 11.77 5.21547L10.189 4.3445C10.1016 4.29635 10.0025 4.271 9.90155 4.271C9.80068 4.271 9.70153 4.29635 9.61412 4.3445L8.03311 5.21273C7.94576 5.26083 7.87329 5.33001 7.82282 5.4133C7.77236 5.4966 7.74574 5.59109 7.74562 5.6873V7.42924C7.7455 7.52566 7.77199 7.62046 7.82246 7.70404C7.87292 7.78756 7.94558 7.85698 8.03311 7.90522L9.61412 8.77618C9.70153 8.8243 9.80068 8.84968 9.90155 8.84968C10.0025 8.84968 10.1016 8.8243 10.189 8.77618L11.77 7.90522C11.8571 7.85722 11.9295 7.78822 11.98 7.70524C12.0304 7.6222 12.0571 7.52794 12.0575 7.432Z" fill="white" fill-opacity="0.5"/>
<path d="M4.31184 11.702V9.96001C4.31174 9.86383 4.28513 9.76933 4.23467 9.68605C4.18422 9.60271 4.1117 9.5336 4.02439 9.48548L2.44338 8.61452C2.35598 8.56634 2.25684 8.54102 2.15592 8.54102C2.05501 8.54102 1.95587 8.56634 1.86846 8.61452L0.287457 9.48548C0.200146 9.5336 0.127626 9.60271 0.0771717 9.68605C0.0267176 9.76933 0.000104035 9.86383 6.24701e-07 9.96001V11.702C-0.000148337 11.7984 0.0263456 11.8932 0.0768121 11.9767C0.127278 12.0603 0.199935 12.1297 0.287457 12.1779L1.86846 13.0489C1.95587 13.0971 2.05501 13.1224 2.15592 13.1224C2.25684 13.1224 2.35598 13.0971 2.44338 13.0489L4.02439 12.1779C4.11191 12.1297 4.18457 12.0603 4.23503 11.9767C4.2855 11.8932 4.31199 11.7984 4.31184 11.702Z" fill="white" fill-opacity="0.5"/>
<path d="M9.47509 3.16196V1.42003C9.47497 1.32381 9.44835 1.22932 9.39795 1.14603C9.34748 1.06273 9.27495 0.993554 9.1876 0.945452L7.60665 0.0744809C7.51924 0.0263273 7.42009 0.000976562 7.31916 0.000976562C7.21823 0.000976562 7.11909 0.0263273 7.03168 0.0744809L5.4507 0.945452C5.36338 0.993554 5.29086 1.06273 5.24041 1.14603C5.18996 1.22932 5.16334 1.32381 5.16324 1.42003V3.16196C5.16309 3.2584 5.18958 3.35319 5.24006 3.43674C5.29052 3.5203 5.36318 3.58969 5.4507 3.63791L7.03168 4.50888C7.11909 4.55703 7.21823 4.58238 7.31916 4.58238C7.42009 4.58238 7.51924 4.55703 7.60665 4.50888L9.1876 3.63791C9.27513 3.58969 9.34779 3.5203 9.39825 3.43674C9.44872 3.35319 9.47521 3.2584 9.47509 3.16196Z" fill="white"/>
</svg>
