<svg width="97" height="17" viewBox="0 0 97 17" fill="none" xmlns="http://www.w3.org/2000/svg">
<path d="M7.676 13H0.278V0.993999H2.384V11.146H7.676V13ZM13.1832 13.216C11.8392 13.216 10.7592 12.778 9.94316 11.902C9.12716 11.014 8.71916 9.928 8.71916 8.644C8.71916 7.36 9.12716 6.28 9.94316 5.404C10.7592 4.528 11.8392 4.09 13.1832 4.09C14.5392 4.09 15.6252 4.528 16.4412 5.404C17.2572 6.28 17.6652 7.36 17.6652 8.644C17.6652 9.94 17.2572 11.026 16.4412 11.902C15.6252 12.778 14.5392 13.216 13.1832 13.216ZM13.1832 11.542C13.9632 11.542 14.5752 11.266 15.0192 10.714C15.4752 10.15 15.7032 9.46 15.7032 8.644C15.7032 7.84 15.4752 7.162 15.0192 6.61C14.5752 6.046 13.9632 5.764 13.1832 5.764C12.4152 5.764 11.8032 6.046 11.3472 6.61C10.9032 7.162 10.6812 7.84 10.6812 8.644C10.6812 9.46 10.9032 10.15 11.3472 10.714C11.8032 11.266 12.4152 11.542 13.1832 11.542ZM23.1055 16.528C21.6295 16.528 20.4175 16.096 19.4695 15.232L20.3515 13.864C20.9995 14.608 21.9175 14.98 23.1055 14.98C23.8255 14.98 24.4315 14.788 24.9235 14.404C25.4275 14.032 25.6795 13.438 25.6795 12.622V11.578C24.9355 12.538 24.0055 13.018 22.8895 13.018C21.7495 13.018 20.8195 12.622 20.0995 11.83C19.3915 11.038 19.0375 9.946 19.0375 8.554C19.0375 7.174 19.3915 6.088 20.0995 5.296C20.8195 4.492 21.7495 4.09 22.8895 4.09C24.0295 4.09 24.9595 4.564 25.6795 5.512V4.306H27.5695V12.55C27.5695 13.294 27.4375 13.936 27.1735 14.476C26.9215 15.028 26.5735 15.442 26.1295 15.718C25.6855 16.006 25.2115 16.21 24.7075 16.33C24.2155 16.462 23.6815 16.528 23.1055 16.528ZM23.4475 11.344C23.8795 11.344 24.3055 11.23 24.7255 11.002C25.1455 10.774 25.4635 10.498 25.6795 10.174V6.934C25.4635 6.61 25.1455 6.334 24.7255 6.106C24.3055 5.878 23.8795 5.764 23.4475 5.764C22.7035 5.764 22.1095 6.022 21.6655 6.538C21.2215 7.042 20.9995 7.714 20.9995 8.554C20.9995 9.394 21.2215 10.072 21.6655 10.588C22.1095 11.092 22.7035 11.344 23.4475 11.344ZM33.9429 13.216C32.5989 13.216 31.5189 12.778 30.7029 11.902C29.8869 11.014 29.4789 9.928 29.4789 8.644C29.4789 7.36 29.8869 6.28 30.7029 5.404C31.5189 4.528 32.5989 4.09 33.9429 4.09C35.2989 4.09 36.3849 4.528 37.2009 5.404C38.0169 6.28 38.4249 7.36 38.4249 8.644C38.4249 9.94 38.0169 11.026 37.2009 11.902C36.3849 12.778 35.2989 13.216 33.9429 13.216ZM33.9429 11.542C34.7229 11.542 35.3349 11.266 35.7789 10.714C36.2349 10.15 36.4629 9.46 36.4629 8.644C36.4629 7.84 36.2349 7.162 35.7789 6.61C35.3349 6.046 34.7229 5.764 33.9429 5.764C33.1749 5.764 32.5629 6.046 32.1069 6.61C31.6629 7.162 31.4409 7.84 31.4409 8.644C31.4409 9.46 31.6629 10.15 32.1069 10.714C32.5629 11.266 33.1749 11.542 33.9429 11.542ZM42.1034 12.838C41.8514 13.078 41.5574 13.198 41.2214 13.198C40.8854 13.198 40.5914 13.078 40.3394 12.838C40.0874 12.586 39.9614 12.286 39.9614 11.938C39.9614 11.59 40.0874 11.296 40.3394 11.056C40.5914 10.804 40.8854 10.678 41.2214 10.678C41.5574 10.678 41.8514 10.804 42.1034 11.056C42.3554 11.296 42.4814 11.59 42.4814 11.938C42.4814 12.286 42.3554 12.586 42.1034 12.838ZM52.5836 13H50.6936V11.812C49.9736 12.748 49.0436 13.216 47.9036 13.216C46.7636 13.216 45.8336 12.808 45.1136 11.992C44.3936 11.176 44.0336 10.066 44.0336 8.662C44.0336 7.27 44.3936 6.16 45.1136 5.332C45.8336 4.504 46.7636 4.09 47.9036 4.09C49.0436 4.09 49.9736 4.564 50.6936 5.512V0.993999H52.5836V13ZM48.4436 11.542C48.8876 11.542 49.3196 11.434 49.7396 11.218C50.1596 11.002 50.4776 10.726 50.6936 10.39V6.934C50.4776 6.598 50.1596 6.322 49.7396 6.106C49.3196 5.878 48.8876 5.764 48.4436 5.764C47.6996 5.764 47.1056 6.034 46.6616 6.574C46.2176 7.114 45.9956 7.81 45.9956 8.662C45.9956 9.514 46.2176 10.21 46.6616 10.75C47.1056 11.278 47.6996 11.542 48.4436 11.542ZM59.0466 13.216C57.7266 13.216 56.6346 12.796 55.7706 11.956C54.9186 11.104 54.4926 10 54.4926 8.644C54.4926 7.372 54.9066 6.298 55.7346 5.422C56.5746 4.534 57.6306 4.09 58.9026 4.09C60.1866 4.09 61.2186 4.534 61.9986 5.422C62.7906 6.31 63.1866 7.444 63.1866 8.824V9.274H56.4726C56.5446 9.958 56.8266 10.528 57.3186 10.984C57.8106 11.44 58.4526 11.668 59.2446 11.668C59.6886 11.668 60.1326 11.584 60.5766 11.416C61.0326 11.248 61.4106 11.014 61.7106 10.714L62.5746 11.956C61.6986 12.796 60.5226 13.216 59.0466 13.216ZM61.3506 7.942C61.3266 7.342 61.1046 6.808 60.6846 6.34C60.2766 5.872 59.6826 5.638 58.9026 5.638C58.1586 5.638 57.5766 5.872 57.1566 6.34C56.7366 6.796 56.5026 7.33 56.4546 7.942H61.3506ZM68.0221 13.216C66.4621 13.216 65.2201 12.766 64.2961 11.866L65.1601 10.498C65.4841 10.834 65.9221 11.122 66.4741 11.362C67.0261 11.602 67.5721 11.722 68.1121 11.722C68.6641 11.722 69.0841 11.614 69.3721 11.398C69.6721 11.182 69.8221 10.9 69.8221 10.552C69.8221 10.24 69.6421 10 69.2821 9.832C68.9221 9.652 68.4841 9.514 67.9681 9.418C67.4521 9.31 66.9361 9.184 66.4201 9.04C65.9041 8.884 65.4661 8.614 65.1061 8.23C64.7461 7.846 64.5661 7.348 64.5661 6.736C64.5661 5.992 64.8721 5.368 65.4841 4.864C66.0961 4.348 66.9301 4.09 67.9861 4.09C69.3181 4.09 70.4461 4.498 71.3701 5.314L70.5781 6.646C70.3021 6.334 69.9361 6.082 69.4801 5.89C69.0241 5.698 68.5321 5.602 68.0041 5.602C67.5121 5.602 67.1161 5.704 66.8161 5.908C66.5281 6.1 66.3841 6.352 66.3841 6.664C66.3841 6.904 66.5101 7.102 66.7621 7.258C67.0261 7.402 67.3501 7.51 67.7341 7.582C68.1301 7.654 68.5561 7.756 69.0121 7.888C69.4681 8.008 69.8881 8.152 70.2721 8.32C70.6681 8.488 70.9921 8.764 71.2441 9.148C71.5081 9.52 71.6401 9.976 71.6401 10.516C71.6401 11.308 71.3221 11.956 70.6861 12.46C70.0501 12.964 69.1621 13.216 68.0221 13.216ZM74.4784 3.244C74.1664 3.244 73.8904 3.13 73.6504 2.902C73.4224 2.674 73.3084 2.398 73.3084 2.074C73.3084 1.75 73.4224 1.474 73.6504 1.246C73.8904 1.018 74.1664 0.903999 74.4784 0.903999C74.8024 0.903999 75.0784 1.018 75.3064 1.246C75.5344 1.474 75.6484 1.75 75.6484 2.074C75.6484 2.398 75.5344 2.674 75.3064 2.902C75.0784 3.13 74.8024 3.244 74.4784 3.244ZM75.4324 13H73.5424V4.306H75.4324V13ZM81.4122 16.528C79.9362 16.528 78.7242 16.096 77.7762 15.232L78.6582 13.864C79.3062 14.608 80.2242 14.98 81.4122 14.98C82.1322 14.98 82.7382 14.788 83.2302 14.404C83.7342 14.032 83.9862 13.438 83.9862 12.622V11.578C83.2422 12.538 82.3122 13.018 81.1962 13.018C80.0562 13.018 79.1262 12.622 78.4062 11.83C77.6982 11.038 77.3442 9.946 77.3442 8.554C77.3442 7.174 77.6982 6.088 78.4062 5.296C79.1262 4.492 80.0562 4.09 81.1962 4.09C82.3362 4.09 83.2662 4.564 83.9862 5.512V4.306H85.8762V12.55C85.8762 13.294 85.7442 13.936 85.4802 14.476C85.2282 15.028 84.8802 15.442 84.4362 15.718C83.9922 16.006 83.5182 16.21 83.0142 16.33C82.5222 16.462 81.9882 16.528 81.4122 16.528ZM81.7542 11.344C82.1862 11.344 82.6122 11.23 83.0322 11.002C83.4522 10.774 83.7702 10.498 83.9862 10.174V6.934C83.7702 6.61 83.4522 6.334 83.0322 6.106C82.6122 5.878 82.1862 5.764 81.7542 5.764C81.0102 5.764 80.4162 6.022 79.9722 6.538C79.5282 7.042 79.3062 7.714 79.3062 8.554C79.3062 9.394 79.5282 10.072 79.9722 10.588C80.4162 11.092 81.0102 11.344 81.7542 11.344ZM96.0836 13H94.1936V7.564C94.1936 6.364 93.6116 5.764 92.4476 5.764C91.9916 5.764 91.5656 5.878 91.1696 6.106C90.7736 6.334 90.4556 6.61 90.2156 6.934V13H88.3256V4.306H90.2156V5.494C90.5396 5.11 90.9716 4.78 91.5116 4.504C92.0516 4.228 92.6396 4.09 93.2756 4.09C94.1996 4.09 94.8956 4.33 95.3636 4.81C95.8436 5.29 96.0836 5.98 96.0836 6.88V13Z" fill="#352F55"/>
</svg>
