<svg width="48" height="48" viewBox="0 0 48 48" fill="none" xmlns="http://www.w3.org/2000/svg">
<path d="M48 24.0001C48 31.9239 41.6 38.4001 33.6 38.4001C25.6762 38.4001 19.2 31.9239 19.2 24.0001C19.2 16.0763 25.6 9.6001 33.5238 9.6001C41.6 9.6001 48 16.0763 48 24.0001Z" fill="white" fill-opacity="0.3"/>
<path d="M14.2665 9.71436C6.40849 9.79019 0 16.1606 0 24.0477C0 31.9348 6.40849 38.381 14.4191 38.381C18.1574 38.381 21.5142 36.9401 24.1081 34.665C24.6422 34.2099 25.0999 33.6791 25.5577 33.1482H22.5823C22.2008 32.6932 21.8194 32.1623 21.5142 31.7073H26.6257C26.9309 31.2523 27.2361 30.7214 27.4649 30.1905H20.675C20.4461 29.7355 20.2173 29.2047 20.0647 28.6738H27.999C28.4567 27.2329 28.7619 25.7161 28.7619 24.1235C28.7619 23.0618 28.6093 22.0759 28.4567 21.09H19.6069C19.6832 20.5592 19.8358 20.1041 19.9884 19.5733H27.9227C27.7701 19.0424 27.5412 18.5115 27.3124 18.0565H20.5987C20.8276 17.5256 21.1328 17.0706 21.4379 16.5398H26.5494C26.2443 16.0089 25.8628 15.478 25.4051 15.023H22.5823C23.04 14.4921 23.4978 14.0371 24.0318 13.5821C21.5142 11.2311 18.0811 9.86603 14.3428 9.86603C14.3428 9.71436 14.3428 9.71436 14.2665 9.71436Z" fill="white"/>
<path d="M14.4 38.4001C18.1334 38.4001 21.4857 36.9524 24.0762 34.6667C24.6096 34.2096 25.0667 33.6763 25.5238 33.1429H22.5524C22.1715 32.6858 21.7905 32.1524 21.4857 31.6953H26.5905C26.8953 31.2382 27.2 30.7048 27.4286 30.1715H20.6476C20.4191 29.7143 20.1905 29.181 20.0381 28.6477H27.9619C28.4191 27.2001 28.7238 25.6763 28.7238 24.0763C28.7238 23.0096 28.5715 22.0191 28.4191 21.0286H19.581C19.6572 20.4953 19.8096 20.0382 19.9619 19.5048H27.8857C27.7334 18.9715 27.5048 18.4382 27.2762 17.981H20.5715C20.8 17.4477 21.1048 16.9905 21.4096 16.4572H26.5143C26.2096 15.9239 25.8286 15.3905 25.3715 14.9334H22.5524C23.0096 14.4001 23.4667 13.9429 24 13.4858C21.4857 11.1239 18.0572 9.75244 14.3238 9.75244H14.2477" fill="white"/>
<path d="M19.5047 27.6569L19.7333 26.3617C19.6571 26.3617 19.5047 26.4379 19.3524 26.4379C18.819 26.4379 18.7428 26.1331 18.819 25.9807L19.2762 23.3141H20.1143L20.3428 21.8664H19.5809L19.7333 20.9521H18.2095C18.2095 20.9521 17.2952 25.9807 17.2952 26.5902C17.2952 27.5045 17.8285 27.8855 18.5143 27.8855C18.9714 27.8855 19.3524 27.7331 19.5047 27.6569Z" fill="#4045BA"/>
<path d="M20.0381 25.219C20.0381 27.3523 21.4857 27.8856 22.7047 27.8856C23.8476 27.8856 24.3047 27.6571 24.3047 27.6571L24.6095 26.2095C24.6095 26.2095 23.7714 26.5904 23.0095 26.5904C21.3333 26.5904 21.6381 25.3714 21.6381 25.3714H24.7619C24.7619 25.3714 24.9905 24.3809 24.9905 23.9999C24.9905 23.0095 24.4571 21.7904 22.7809 21.7904C21.1809 21.638 20.0381 23.3142 20.0381 25.219ZM22.7047 23.0095C23.5428 23.0095 23.3905 23.9999 23.3905 24.0761H21.7143C21.7143 23.9999 21.8666 23.0095 22.7047 23.0095Z" fill="#4045BA"/>
<path d="M32.3809 27.6571L32.6857 25.9809C32.6857 25.9809 31.9238 26.3618 31.3904 26.3618C30.3238 26.3618 29.8666 25.5237 29.8666 24.6095C29.8666 22.7809 30.7809 21.7904 31.8476 21.7904C32.6095 21.7904 33.219 22.2476 33.219 22.2476L33.4476 20.6476C33.4476 20.6476 32.5333 20.2666 31.6952 20.2666C29.9428 20.2666 28.1904 21.7904 28.1904 24.6856C28.1904 26.5904 29.1047 27.8856 30.9333 27.8856C31.5428 27.8856 32.3809 27.6571 32.3809 27.6571Z" fill="#4045BA"/>
<path d="M11.1238 21.6382C10.0571 21.6382 9.29521 21.9429 9.29521 21.9429L9.06664 23.2382C9.06664 23.2382 9.75235 22.9334 10.7428 22.9334C11.2762 22.9334 11.7333 23.0096 11.7333 23.4668C11.7333 23.7715 11.6571 23.8477 11.6571 23.8477C11.6571 23.8477 11.2 23.8477 10.9714 23.8477C9.67616 23.8477 8.22855 24.381 8.22855 26.1334C8.22855 27.5049 9.14283 27.8096 9.67616 27.8096C10.7428 27.8096 11.2 27.1239 11.2762 27.1239L11.2 27.7334H12.5714L13.1809 23.5429C13.1809 21.7144 11.6571 21.6382 11.1238 21.6382ZM11.4285 25.0668C11.4285 25.2953 11.2762 26.5144 10.3619 26.5144C9.90473 26.5144 9.75235 26.1334 9.75235 25.9049C9.75235 25.5239 9.98092 24.9906 11.1238 24.9906C11.3524 25.0668 11.4285 25.0668 11.4285 25.0668Z" fill="#4045BA"/>
<path d="M14.6285 27.8091C15.0095 27.8091 16.9143 27.8853 16.9143 25.8282C16.9143 23.9234 15.0857 24.3044 15.0857 23.5425C15.0857 23.1615 15.3904 23.0091 15.9238 23.0091C16.1524 23.0091 16.9904 23.0853 16.9904 23.0853L17.219 21.7139C17.219 21.7139 16.6857 21.5615 15.7714 21.5615C14.6285 21.5615 13.4857 22.0187 13.4857 23.5425C13.4857 25.2949 15.3904 25.1425 15.3904 25.8282C15.3904 26.2853 14.8571 26.3615 14.4762 26.3615C13.7904 26.3615 13.1047 26.1329 13.1047 26.1329L12.8762 27.5044C12.9524 27.6568 13.3333 27.8091 14.6285 27.8091Z" fill="#4045BA"/>
<path d="M45.0285 20.4189L44.7238 22.4761C44.7238 22.4761 44.1143 21.7142 43.2762 21.7142C41.9047 21.7142 40.6857 23.3904 40.6857 25.3713C40.6857 26.5904 41.2952 27.8856 42.5904 27.8856C43.5047 27.8856 44.0381 27.2761 44.0381 27.2761L43.9619 27.8094H45.4857L46.6285 20.4951L45.0285 20.4189ZM44.3428 24.457C44.3428 25.2951 43.9619 26.3618 43.1238 26.3618C42.5904 26.3618 42.2857 25.9047 42.2857 25.1428C42.2857 23.9237 42.819 23.1618 43.5047 23.1618C44.0381 23.1618 44.3428 23.5428 44.3428 24.457Z" fill="#4045BA"/>
<path d="M2.81902 27.7332L3.7333 22.2475L3.88568 27.7332H4.95235L6.9333 22.2475L6.09521 27.7332H7.69521L8.91426 20.4189H6.39997L4.87616 24.9142L4.79997 20.4189H2.59045L1.3714 27.7332H2.81902Z" fill="#4045BA"/>
<path d="M26.4381 27.7334C26.8952 25.2191 26.9714 23.162 28.0381 23.5429C28.1904 22.5524 28.419 22.1715 28.5714 21.7905C28.5714 21.7905 28.4952 21.7905 28.2666 21.7905C27.5809 21.7905 27.0476 22.7048 27.0476 22.7048L27.2 21.8667H25.7523L24.7619 27.8096H26.4381V27.7334Z" fill="#4045BA"/>
<path d="M35.8857 21.6382C34.819 21.6382 34.0571 21.9429 34.0571 21.9429L33.8285 23.2382C33.8285 23.2382 34.5143 22.9334 35.5047 22.9334C36.0381 22.9334 36.4952 23.0096 36.4952 23.4668C36.4952 23.7715 36.419 23.8477 36.419 23.8477C36.419 23.8477 35.9619 23.8477 35.7333 23.8477C34.4381 23.8477 32.9904 24.381 32.9904 26.1334C32.9904 27.5049 33.9047 27.8096 34.4381 27.8096C35.5047 27.8096 35.9619 27.1239 36.0381 27.1239L35.9619 27.7334H37.3333L37.9428 23.5429C38.019 21.7144 36.419 21.6382 35.8857 21.6382ZM36.2666 25.0668C36.2666 25.2953 36.1143 26.5144 35.2 26.5144C34.7428 26.5144 34.5904 26.1334 34.5904 25.9049C34.5904 25.5239 34.819 24.9906 35.9619 24.9906C36.1904 25.0668 36.1904 25.0668 36.2666 25.0668Z" fill="#4045BA"/>
<path d="M39.2381 27.7334C39.6952 25.2191 39.7714 23.162 40.8381 23.5429C40.9904 22.5524 41.219 22.1715 41.3714 21.7905C41.3714 21.7905 41.2952 21.7905 41.0666 21.7905C40.3809 21.7905 39.8476 22.7048 39.8476 22.7048L40 21.8667H38.5524L37.5619 27.8096H39.2381V27.7334Z" fill="#4045BA"/>
</svg>
