<svg width="48" height="48" viewBox="0 0 48 48" fill="none" xmlns="http://www.w3.org/2000/svg">
<path d="M19.2195 16.8574L16.78 31.1729H20.6815L23.123 16.8574H19.2195Z" fill="white"/>
<path d="M13.5087 16.8731L9.6875 26.6359L9.28009 25.1618C8.52648 23.3856 6.38708 20.8348 3.8754 19.2273L7.36948 31.1656L11.4978 31.1585L17.642 16.8701L13.5087 16.8731Z" fill="white"/>
<path d="M7.79897 17.8979C7.57219 17.0259 6.91491 16.766 6.09909 16.7349H0.0501735L0 17.0198C4.70728 18.1618 7.82205 20.9133 9.11452 24.2218L7.79897 17.8979Z" fill="white"/>
<path d="M31.0303 19.6017C32.3067 19.5816 33.2319 19.8606 33.9504 20.1496L34.3026 20.3151L34.8305 17.2124C34.0578 16.9224 32.8466 16.6113 31.3354 16.6113C27.48 16.6113 24.7626 18.553 24.7416 21.3357C24.7165 23.3918 26.6773 24.5397 28.1584 25.2251C29.6786 25.9275 30.1884 26.3741 30.1814 27.0013C30.1693 27.9596 28.9692 28.3991 27.8483 28.3991C26.2859 28.3991 25.456 28.1833 24.1746 27.6495L23.6719 27.4207L23.123 30.6248C24.0361 31.0252 25.721 31.3694 27.47 31.3874C31.5712 31.3874 34.2364 29.4688 34.2645 26.4955C34.2816 24.8689 33.241 23.6276 30.9862 22.6091C29.6214 21.9448 28.7866 21.5032 28.7946 20.8329C28.7946 20.2379 29.503 19.6017 31.0303 19.6017Z" fill="white"/>
<path d="M44.8431 16.8735H41.8286C40.8924 16.8735 40.196 17.1284 39.7846 18.0616L33.9915 31.181H38.0887C38.0887 31.181 38.757 29.4169 38.9085 29.0306C39.3571 29.0306 43.3379 29.0366 43.9048 29.0366C44.0212 29.5363 44.3805 31.181 44.3805 31.181H48L44.8431 16.8735ZM40.0314 26.1004C40.3525 25.2786 41.5858 22.0996 41.5858 22.0996C41.5647 22.1387 41.9039 21.2717 42.1056 20.7329L42.3685 21.9672C42.3685 21.9672 43.1161 25.385 43.2726 26.1004H40.0314Z" fill="white"/>
</svg>
